<?xml version="1.0" standalone="no"?>
<!DOCTYPE svg PUBLIC "-//W3C//DTD SVG 20010904//EN" "http://www.w3.org/TR/2001/REC-SVG-20010904/DTD/svg10.dtd">
<svg version="1.0" xmlns="http://www.w3.org/2000/svg"
        width="700.000000pt" height="700.000000pt" viewBox="0 0 700.000000 700.000000"
        preserveAspectRatio="xMidYMid meet">
    <g transform="translate(0.000000,700.000000) scale(0.100000,-0.100000)"
    fill="#000000" stroke="none">
        <path d="M3490 6660 c-17 -18 -30 -36 -30 -41 0 -5 -25 -49 -56 -97 -88 -138
        -294 -474 -294 -478 0 -3 -5 -10 -11 -17 -8 -10 -494 -792 -524 -845 -5 -9
        -41 -68 -80 -130 -38 -62 -93 -150 -120 -195 -188 -305 -301 -487 -320 -517
        -13 -19 -118 -190 -235 -380 -117 -190 -222 -361 -234 -380 -68 -106 -86 -139
        -81 -151 5 -11 412 -258 584 -354 20 -11 47 -28 61 -36 14 -9 86 -52 160 -96
        264 -156 687 -407 810 -481 69 -41 141 -84 160 -95 19 -10 79 -46 132 -78 54
        -32 104 -59 111 -59 7 0 85 43 172 95 87 52 159 95 161 95 1 0 138 81 304 180
        166 99 306 180 311 180 5 0 9 5 9 10 0 6 4 10 9 10 5 0 137 76 293 169 155 92
        389 231 518 307 253 150 260 157 221 211 -21 30 -249 398 -376 607 -61 101
        -412 669 -440 711 -35 54 -124 198 -140 227 -15 26 -761 1235 -816 1321 -25
        39 -81 128 -123 197 -42 68 -83 128 -92 133 -10 6 -23 -1 -44 -23z"/>
        <path d="M1516 3094 c-22 -22 -24 -19 174 -289 85 -116 182 -248 270 -370 52
        -71 98 -134 103 -140 9 -12 83 -114 153 -210 28 -38 216 -297 419 -575 203
        -278 402 -552 444 -610 41 -58 79 -109 84 -115 4 -5 62 -84 128 -175 199 -273
        219 -300 230 -300 11 0 69 60 69 71 0 3 9 17 21 30 18 21 67 87 119 163 8 12
        94 129 190 260 96 130 182 247 190 260 16 23 781 1074 812 1116 11 14 44 59
        74 100 30 41 62 84 70 95 8 11 55 76 105 145 128 176 223 307 302 413 68 94
        77 116 53 136 -16 13 -43 0 -266 -133 -85 -51 -256 -152 -380 -225 -124 -73
        -237 -142 -252 -152 -15 -10 -30 -19 -33 -19 -3 0 -22 -11 -43 -24 -20 -13
        -147 -89 -282 -168 -135 -80 -357 -212 -493 -293 -136 -80 -254 -144 -262
        -142 -7 3 -96 55 -197 115 -100 60 -295 175 -433 257 -137 81 -261 155 -275
        164 -14 9 -30 18 -36 21 -6 3 -135 79 -288 170 -152 91 -290 173 -306 182 -16
        9 -121 71 -233 137 -113 67 -207 121 -210 121 -3 0 -13 -7 -21 -16z"/>
    </g>
</svg>
